<svg xmlns="http://www.w3.org/2000/svg" viewBox="0 0 120 120">
  <!-- Wind Turbine -->
  <!-- Tower -->
  <polygon points="55,50 65,50 62,108 58,108" fill="#FF9800"/>
  <polygon points="56,50 64,50 62,108 58,108" fill="#FFB74D"/>
  <!-- Base -->
  <rect x="48" y="105" width="24" height="6" rx="3" fill="#E65100"/>
  <!-- Hub -->
  <circle cx="60" cy="45" r="6" fill="#F57C00"/>
  <circle cx="60" cy="45" r="4" fill="#FFB74D"/>
  <!-- Blades -->
  <ellipse cx="60" cy="22" rx="5" ry="23" fill="#FF9800"/>
  <ellipse cx="60" cy="22" rx="3.5" ry="21" fill="#FFB74D"/>
  <ellipse cx="40" cy="58" rx="5" ry="23" fill="#FF9800" transform="rotate(120, 60, 45)"/>
  <ellipse cx="40" cy="58" rx="3.5" ry="21" fill="#FFB74D" transform="rotate(120, 60, 45)"/>
  <ellipse cx="80" cy="58" rx="5" ry="23" fill="#FF9800" transform="rotate(240, 60, 45)"/>
  <ellipse cx="80" cy="58" rx="3.5" ry="21" fill="#FFB74D" transform="rotate(240, 60, 45)"/>
  <!-- Wind lines -->
  <line x1="8" y1="30" x2="28" y2="30" stroke="#FFE0B2" stroke-width="2" stroke-linecap="round"/>
  <line x1="5" y1="42" x2="22" y2="42" stroke="#FFE0B2" stroke-width="2" stroke-linecap="round"/>
  <line x1="10" y1="54" x2="25" y2="54" stroke="#FFE0B2" stroke-width="2" stroke-linecap="round"/>
</svg>
