<svg width="76" height="76" viewBox="0 0 76 76" fill="none" xmlns="http://www.w3.org/2000/svg">
<circle cx="37.8367" cy="37.8365" r="37.8365" fill="#003366"/>
<g clip-path="url(#clip0_1061_10270)">
<path d="M53.9812 63.3054C53.9812 63.3054 55.222 46.9684 55.222 40.4926C55.222 38.8779 53.8186 37.3198 52.0886 37.3198C50.3585 37.3198 48.9551 38.7408 48.9551 40.4926V47.3627V39.5533C48.9551 37.6318 47.4163 36.0737 45.5186 36.0737C43.6209 36.0737 42.2091 37.5067 42.0906 39.3184C42.0855 39.3956 42.0821 39.4744 42.0821 39.5533V46.132V39.039C42.0821 37.1176 40.5433 35.5594 38.6457 35.5594C36.748 35.5594 35.2092 37.1176 35.2092 39.039V45.4446V23.9139C35.2092 21.857 33.562 20.1909 31.5323 20.1909C29.5026 20.1909 27.8555 21.8587 27.8555 23.9139V51.2468C27.8555 51.2468 26.7043 50.3315 25.2451 48.3997C23.7858 46.4696 22.721 44.0956 19.4792 44.0956C17.9557 44.0956 16.9992 44.7915 16.6149 46.0068C16.1799 47.3198 18.0996 50.4532 18.0996 50.4532L25.6158 64.2002" stroke="#E5BA4A" stroke-width="3.84196" stroke-linecap="round" stroke-linejoin="round"/>
<path d="M22.2981 23.4492H15.7772" stroke="#E5BA4A" stroke-width="3.84196" stroke-linecap="round" stroke-linejoin="round"/>
<path d="M25.376 17.2187L20.5361 12.229" stroke="#E5BA4A" stroke-width="3.84196" stroke-linecap="round" stroke-linejoin="round"/>
<path d="M31.4769 14.7522L31.46 7.7998" stroke="#E5BA4A" stroke-width="3.84196" stroke-linecap="round" stroke-linejoin="round"/>
<path d="M37.7334 17.1417L42.3261 12.3628" stroke="#E5BA4A" stroke-width="3.84196" stroke-linecap="round" stroke-linejoin="round"/>
<path d="M47.1664 23.4492H40.6455" stroke="#E5BA4A" stroke-width="3.84196" stroke-linecap="round" stroke-linejoin="round"/>
</g>
<defs>
<clipPath id="clip0_1061_10270">
<rect width="43" height="60" fill="white" transform="translate(14 6)"/>
</clipPath>
</defs>
</svg>
