<svg width="113" height="113" viewBox="0 0 113 113" fill="none" xmlns="http://www.w3.org/2000/svg">
<circle cx="56.2229" cy="56.2229" r="56.2229" fill="white"/>
<g clip-path="url(#clip0_1065_4844)">
<path d="M80.2132 94.0687C80.2132 94.0687 82.057 69.7928 82.057 60.1701C82.057 57.7708 79.9717 55.4555 77.4009 55.4555C74.8301 55.4555 72.7447 57.567 72.7447 60.1701V70.3786V58.7743C72.7447 55.9191 70.4582 53.6038 67.6383 53.6038C64.8185 53.6038 62.7206 55.7331 62.5445 58.4254C62.5369 58.54 62.5319 58.6571 62.5319 58.7743V68.5498V58.0102C62.5319 55.155 60.2453 52.8397 57.4255 52.8397C54.6056 52.8397 52.3191 55.155 52.3191 58.0102V67.5285V35.5351C52.3191 32.4787 49.8715 30.0029 46.8555 30.0029C43.8394 30.0029 41.3919 32.4812 41.3919 35.5351V76.1502C41.3919 76.1502 39.6813 74.7901 37.513 71.9196C35.3447 69.0516 33.7624 65.524 28.9453 65.524C26.6814 65.524 25.2601 66.5581 24.6891 68.3639C24.0426 70.3149 26.8952 74.9709 26.8952 74.9709L38.0639 95.3982" stroke="#E5BA4A" stroke-width="5.70894" stroke-linecap="round" stroke-linejoin="round"/>
<path d="M33.1335 34.8447H23.4438" stroke="#E5BA4A" stroke-width="5.70894" stroke-linecap="round" stroke-linejoin="round"/>
<path d="M37.7074 25.5863L30.5156 18.1719" stroke="#E5BA4A" stroke-width="5.70894" stroke-linecap="round" stroke-linejoin="round"/>
<path d="M46.7727 21.9211L46.7476 11.5903" stroke="#E5BA4A" stroke-width="5.70894" stroke-linecap="round" stroke-linejoin="round"/>
<path d="M56.0698 25.4718L62.8943 18.3706" stroke="#E5BA4A" stroke-width="5.70894" stroke-linecap="round" stroke-linejoin="round"/>
<path d="M70.0866 34.8445H60.397" stroke="#E5BA4A" stroke-width="5.70894" stroke-linecap="round" stroke-linejoin="round"/>
</g>
<defs>
<clipPath id="clip0_1065_4844">
<rect width="63.8956" height="89.1566" fill="white" transform="translate(20.8032 8.91602)"/>
</clipPath>
</defs>
</svg>
