<svg width="113" height="113" viewBox="0 0 113 113" fill="none" xmlns="http://www.w3.org/2000/svg">
<circle cx="56.2229" cy="56.2229" r="56.2229" fill="white"/>
<path d="M75.8965 59.9016C77.5377 59.9018 78.8682 61.2321 78.8682 62.8733V73.2014H89.1953C90.8365 73.2016 92.168 74.5319 92.168 76.1731C92.1679 77.8143 90.8365 79.1446 89.1953 79.1448H78.8682V90.6829C78.8678 92.3237 77.5374 93.6544 75.8965 93.6545C74.2554 93.6545 72.9252 92.3239 72.9248 90.6829V79.1448H62.5957C60.9544 79.1448 59.6241 77.8144 59.624 76.1731C59.624 74.5318 60.9544 73.2014 62.5957 73.2014H72.9248V62.8733C72.9248 61.232 74.2552 59.9016 75.8965 59.9016ZM55.9453 19.2581C75.6927 19.2581 91.7012 35.2665 91.7012 55.0139C91.7012 57.0656 90.038 58.7288 87.9863 58.7288C85.9347 58.7288 84.2715 57.0656 84.2715 55.0139C84.2715 39.3698 71.5894 26.6877 55.9453 26.6877C40.3012 26.6878 27.6191 39.3698 27.6191 55.0139C27.6191 70.658 40.3012 83.3401 55.9453 83.3401C57.997 83.3401 59.6601 85.0033 59.6602 87.0549C59.6602 89.1066 57.997 90.7698 55.9453 90.7698C36.1979 90.7698 20.1895 74.7613 20.1895 55.0139C20.1895 35.2665 36.1979 19.2581 55.9453 19.2581ZM55.9453 30.8831C57.5864 30.8832 58.9169 32.2136 58.917 33.8547V51.4661L67.1436 43.2395C68.3041 42.0792 70.1861 42.0791 71.3467 43.2395C72.5071 44.4 72.507 46.2821 71.3467 47.4426L52.9736 65.8157V33.8547C52.9737 32.2135 54.304 30.8831 55.9453 30.8831Z" fill="#E5BA4A"/>
</svg>
