<svg width="76" height="76" viewBox="0 0 76 76" fill="none" xmlns="http://www.w3.org/2000/svg">
<circle cx="37.8365" cy="37.8365" r="37.8365" fill="#003366"/>
<path d="M51.0762 40.3115C52.1806 40.3116 53.0761 41.207 53.0762 42.3115V49.2627H60.0264C61.1308 49.2628 62.0264 50.1582 62.0264 51.2627C62.0261 52.367 61.1307 53.2626 60.0264 53.2627H53.0762V61.0264C53.0762 62.1309 52.1807 63.0263 51.0762 63.0264C49.9716 63.0264 49.0762 62.1309 49.0762 61.0264V53.2627H42.125C41.0206 53.2627 40.1253 52.367 40.125 51.2627C40.125 50.1581 41.0204 49.2627 42.125 49.2627H49.0762V42.3115C49.0762 41.207 49.9716 40.3115 51.0762 40.3115ZM37.6494 12.96C50.9388 12.96 61.7118 23.7331 61.7119 37.0225C61.7119 38.4032 60.5926 39.5225 59.2119 39.5225C57.8314 39.5222 56.7119 38.403 56.7119 37.0225C56.7118 26.4945 48.1774 17.96 37.6494 17.96C27.1215 17.9601 18.587 26.4946 18.5869 37.0225C18.5869 47.5504 27.1215 56.0848 37.6494 56.085C39.03 56.085 40.1492 57.2045 40.1494 58.585C40.1494 59.9657 39.0301 61.085 37.6494 61.085C24.36 61.0848 13.5869 50.3119 13.5869 37.0225C13.587 23.7332 24.3601 12.9601 37.6494 12.96ZM37.6494 20.7832C38.754 20.7832 39.6494 21.6786 39.6494 22.7832V34.6348L45.1855 29.0986C45.9666 28.3177 47.2336 28.3176 48.0146 29.0986C48.7956 29.8797 48.7956 31.1467 48.0146 31.9277L39.0635 40.8779L35.6494 44.292V22.7832C35.6494 21.6786 36.5448 20.7832 37.6494 20.7832Z" fill="#E5BA4A"/>
</svg>
