<svg width="142" height="95" viewBox="0 0 142 95" fill="none" xmlns="http://www.w3.org/2000/svg">
<rect width="141.176" height="94.5882" rx="19.4185" fill="#003366"/>
<rect x="25.4116" y="81.0227" width="24.8597" height="23.1362" rx="7.76739" transform="rotate(-90 25.4116 81.0227)" fill="#E5BA4A"/>
<rect x="58.8982" y="81.0227" width="34.5611" height="23.1362" rx="7.76739" transform="rotate(-90 58.8982 81.0227)" fill="#E5BA4A"/>
<rect x="92.3851" y="81.0227" width="19.4027" height="23.1362" rx="7.76739" transform="rotate(-90 92.3851 81.0227)" fill="#E5BA4A"/>
<path d="M68.9251 16.9524C69.5078 15.1663 72.0345 15.1663 72.6173 16.9524L73.9565 21.0573C74.2172 21.8562 74.9622 22.3968 75.8026 22.3968H80.1195C82.0026 22.3968 82.7834 24.8081 81.2578 25.9119L77.7792 28.4288C77.0958 28.9233 76.8098 29.8024 77.0714 30.6044L78.4034 34.6868C78.9866 36.4745 76.9424 37.9646 75.419 36.8624L71.9095 34.3231C71.2302 33.8316 70.3122 33.8316 69.6329 34.3231L66.1233 36.8624C64.5999 37.9646 62.5557 36.4745 63.1389 34.6868L64.4709 30.6044C64.7326 29.8024 64.4466 28.9233 63.7631 28.4288L60.2845 25.9119C58.7589 24.8081 59.5398 22.3968 61.4228 22.3968H65.7397C66.5801 22.3968 67.3251 21.8562 67.5858 21.0573L68.9251 16.9524Z" fill="#E5BA4A"/>
</svg>
