<svg viewBox="80 25 100 75" fill="none" xmlns="http://www.w3.org/2000/svg">
<g clip-path="url(#clipEasyBldg)">
<path d="M125.624 77.3033C124.952 77.5639 124.821 78.2979 125.048 78.7713C125.308 79.3269 125.912 79.4847 126.406 79.32C127.01 79.1142 127.243 78.4557 127.03 77.8864C126.845 77.3993 126.241 77.0632 125.624 77.3033Z" fill="#003366"/>
<path d="M143.871 45.3233L143.898 47.3949V52.3065L143.85 86.4542C143.569 86.4679 112.611 86.4405 112.611 86.4405L112.563 52.3065V47.3949L112.597 45.3164L126.79 35.7883C127.771 35.1297 128.896 35.2669 129.836 35.8912L143.871 45.3233Z" fill="#F8F6F7"/>
<path d="M112.556 52.3062L112.604 86.4813L95.0367 86.447L95.0161 52.3268L112.556 52.2993V52.3062Z" fill="#D6CFD5"/>
<path d="M161.438 52.3268V86.4813L143.85 86.447L143.898 52.2993L161.438 52.3268Z" fill="#D6CFD5"/>
<path d="M161.439 52.327L143.898 52.3133V49.1304H161.425C162.927 49.1304 163.401 49.8301 163.387 50.7561C163.373 51.6822 162.824 52.3339 161.432 52.3339L161.439 52.327Z" fill="#003366"/>
<path d="M112.563 49.1304V52.3133L95.0159 52.327C93.6234 52.327 93.0746 51.6685 93.0609 50.7493C93.0472 49.8918 93.4313 49.1372 94.8856 49.1372H112.563V49.1304Z" fill="#003366"/>
<path d="M135.893 86.4472L135.914 74.3329C135.921 70.0456 132.834 66.6157 128.635 66.3756C124.492 66.1424 120.610 69.3047 120.596 73.6401L120.541 86.4403" fill="#003366"/>
<path d="M125.624 77.3029C126.241 77.0628 126.845 77.3921 127.030 77.886C127.243 78.4553 127.010 79.1139 126.406 79.3196C125.919 79.4843 125.315 79.3196 125.048 78.7709C124.821 78.2975 124.952 77.5636 125.624 77.3029Z" fill="#F8F6F7"/>
<path d="M120.493 63.1035C119.553 63.1035 118.949 62.4449 118.915 61.5875V47.3535C118.956 46.5166 119.574 45.8718 120.424 45.8718L127.147 45.8855V63.0897L120.486 63.0966L120.493 63.1035Z" fill="#6E98C7"/>
<path d="M137.533 61.5531C137.512 62.5752 136.785 63.1171 135.879 63.1103L129.383 63.0828V45.8787H136.030C136.854 45.8787 137.464 46.4755 137.533 47.2986V61.5531Z" fill="#6E98C7"/>
<path d="M165.054 91.2283H91.4009C90.077 91.2283 89 90.1513 89 88.8274C89 87.5035 90.077 86.4265 91.4009 86.4265H165.054C166.378 86.4265 167.455 87.5035 167.455 88.8274C167.455 90.1513 166.378 91.2283 165.054 91.2283Z" fill="#003366"/>
<path d="M109.566 47.3809C108.914 47.3809 108.276 47.0653 107.892 46.4823C107.281 45.5562 107.535 44.3146 108.454 43.7041L127.120 31.336C127.799 30.8901 128.677 30.8901 129.349 31.3429L147.726 43.7109C148.645 44.3283 148.892 45.5768 148.268 46.496C147.651 47.4152 146.402 47.6621 145.483 47.0379L128.217 35.4175L110.670 47.0448C110.327 47.2711 109.943 47.3809 109.566 47.3809Z" fill="#003366"/>
<path d="M107.370 63.0073C107.370 62.1361 106.732 61.4707 105.847 61.4707H101.807C100.915 61.457 100.222 62.0812 100.222 63.0004L100.209 73.5438C100.202 74.5247 100.853 75.2176 101.834 75.2107H105.834C106.705 75.197 107.363 74.5453 107.363 73.6741V63.0073H107.370Z" fill="#6E98C7"/>
<path d="M156.225 63.0073C156.225 62.1361 155.587 61.4707 154.702 61.4707H150.662C149.770 61.457 149.077 62.0812 149.077 63.0004L149.064 73.5438C149.057 74.5247 149.708 75.2176 150.689 75.2107H154.689C155.560 75.197 156.218 74.5453 156.218 73.6741V63.0073H156.225Z" fill="#6E98C7"/>
</g>
<defs>
<clipPath id="clipEasyBldg">
<rect width="78.4547" height="60.2284" fill="white" transform="translate(89 31)"/>
</clipPath>
</defs>
</svg>
