<svg viewBox="723 0 190 136" fill="none" xmlns="http://www.w3.org/2000/svg">
<g clip-path="url(#clipHard)">
<path d="M805.685 29.4143H783.692V87.0909H805.685V29.4143Z" fill="#6E98C7"/>
<path d="M823.012 12.9508C821.833 13.0468 820.646 13.0674 819.466 12.9508L819.438 1.88605C819.438 0.74048 820.234 -0.0346693 821.297 -0.000370634C822.134 0.033928 822.964 0.699321 822.971 1.74886L823.019 12.9508H823.012Z" fill="#003366"/>
<path d="M828.74 44.382C828.164 44.574 827.19 45.2737 827.19 46.1381L827.149 91.1104C825.194 91.2682 823.438 91.1104 821.716 91.1104L821.757 18.4591C823.849 18.3836 825.9 18.3836 828.006 18.4454C828.445 18.4591 828.685 19.0078 828.685 19.4332L828.733 44.3751L828.74 44.382Z" fill="#6E98C7"/>
<path d="M815.247 13.1156L827.149 13.0881L831.114 13.143C831.793 13.1499 832.300 13.6232 832.307 14.2886L832.342 18.3495L834.893 18.4181C835.422 18.4319 835.819 18.8297 835.819 19.4402L835.833 45.7747L830.688 44.588C830.085 44.4508 829.275 44.2107 828.74 44.3891L828.692 19.4471C828.692 19.0218 828.452 18.473 828.013 18.4593C825.9 18.3907 823.856 18.3976 821.764 18.473L821.723 91.1244H818.176L818.224 18.5279L810.116 18.377V14.3092C810.102 13.6438 810.596 13.1567 811.262 13.1499L815.247 13.1224V13.1156Z" fill="#003366"/>
<path d="M810.109 18.3699L818.217 18.5208L818.169 91.1173H812.880L812.894 22.2182C812.894 18.8775 808.456 20.8874 806.576 21.4431L806.624 19.44C806.624 18.8432 807.084 18.4385 807.708 18.4248L810.109 18.363V18.3699Z" fill="#6E98C7"/>
<path d="M783.692 32.5282C783.727 30.3262 783.027 27.3697 784.831 26.9238L805.836 21.7241L805.705 27.0541L783.692 32.5282Z" fill="#6E98C7"/>
<path d="M819.466 9.34277C820.646 9.45253 821.832 9.43195 823.012 9.34277C823.383 9.37707 823.781 9.41823 824.274 9.41137C825.887 9.38393 827.156 10.5981 827.149 12.217V13.0882L815.247 13.1156L815.261 12.217C815.261 10.6118 816.502 9.41137 818.108 9.41137C818.629 9.41137 819.061 9.37707 819.466 9.34277Z" fill="#6E98C7"/>
<path d="M852.859 46.5088C852.859 45.3083 852.008 44.4028 850.924 44.1422L829.645 38.9151L823.822 37.5706C823.142 37.4128 822.223 37.1453 821.613 37.3442C820.961 37.5568 819.857 38.3526 819.857 39.3335L819.815 91.1107L852.859 91.145L852.845 46.5156L852.859 46.5088Z" fill="#D6CFD5"/>
<path d="M829.824 63.0749C829.536 64.1382 828.513 64.4812 827.663 64.3714C825.735 64.1313 825.893 61.9294 825.996 60.3654C826.065 59.3295 826.819 58.6367 827.683 58.5201C828.644 58.3898 829.707 58.9385 829.885 60.0498C830.036 60.9896 830.098 62.0391 829.824 63.0681V63.0749Z" fill="#6E98C7"/>
<path d="M829.892 53.2241C829.700 54.3285 828.754 54.7744 827.924 54.7675C827.018 54.7675 826.154 54.1227 826.024 53.0663C825.811 51.3857 825.777 49.1494 827.684 48.8956C828.658 48.7652 829.700 49.314 829.892 50.4253C830.036 51.2965 830.064 52.2294 829.892 53.2241Z" fill="#6E98C7"/>
<path d="M829.831 72.6924C829.543 73.7625 828.528 74.0986 827.670 73.9957C825.749 73.7625 825.887 71.5674 826.003 69.9897C826.079 68.9607 826.826 68.2541 827.691 68.1444C828.644 68.0209 829.721 68.5560 829.893 69.6672C830.037 70.6139 830.105 71.6634 829.831 72.6924Z" fill="#6E98C7"/>
<path d="M829.831 82.3236C829.543 83.3869 828.521 83.7367 827.670 83.6338C825.749 83.4006 825.887 81.2055 826.003 79.6209C826.072 78.5919 826.833 77.8922 827.691 77.7825C828.651 77.659 829.721 78.1872 829.893 79.3054C830.037 80.2520 830.112 81.2947 829.831 82.3305V82.3236Z" fill="#6E98C7"/>
<path d="M838.145 53.2245C837.939 54.4044 836.862 54.8572 835.957 54.7611C835.051 54.6651 834.303 53.9105 834.242 52.8404C834.146 51.2009 834.036 49.1293 835.970 48.8961C836.944 48.7794 837.973 49.3488 838.159 50.4738C838.296 51.3244 838.316 52.2505 838.145 53.2314V53.2245Z" fill="#6E98C7"/>
<path d="M838.152 82.0969C837.932 83.2699 836.876 83.7364 835.957 83.6335C835.037 83.5306 834.296 82.776 834.242 81.7059C834.152 80.0801 834.029 78.0016 835.977 77.7753C837.061 77.6449 838.104 78.3583 838.200 79.5725C838.261 80.3682 838.323 81.1914 838.152 82.1038V82.0969Z" fill="#6E98C7"/>
<path d="M838.145 72.4731C837.959 73.5638 837.006 74.0234 836.210 74.0234C835.277 74.0234 834.399 73.3786 834.283 72.3153C834.187 71.4441 834.173 70.5729 834.303 69.7018C834.461 68.6797 835.366 68.1309 836.217 68.1240C837.102 68.1240 837.994 68.6865 838.158 69.7086C838.296 70.5661 838.316 71.4784 838.145 72.4662V72.4731Z" fill="#6E98C7"/>
<path d="M838.145 62.8486C837.959 63.9393 836.999 64.3989 836.210 64.3989C835.277 64.3989 834.399 63.7541 834.283 62.6908C834.187 61.8196 834.173 60.9484 834.303 60.0773C834.461 59.0483 835.360 58.5064 836.217 58.4995C837.102 58.4995 838.001 59.0689 838.158 60.0841C838.296 60.9416 838.309 61.8539 838.145 62.8417V62.8486Z" fill="#6E98C7"/>
<path d="M846.130 82.0424C845.945 83.1468 845.074 83.6545 844.237 83.6476C843.311 83.6476 842.391 83.0714 842.261 81.9807C842.158 81.0958 842.138 80.2109 842.282 79.3328C842.446 78.3313 843.338 77.7482 844.209 77.762C845.080 77.7757 845.979 78.3107 846.137 79.3328C846.267 80.1834 846.295 81.0958 846.137 82.0356L846.130 82.0424Z" fill="#6E98C7"/>
<path d="M846.136 62.8008C845.924 63.8915 845.087 64.4060 844.236 64.3991C843.420 64.3923 842.514 63.9464 842.315 62.9586C842.123 62.0257 842.130 61.0310 842.281 60.0912C842.453 58.9731 843.495 58.4106 844.428 58.5203C846.370 58.7536 846.472 61.0653 846.136 62.7939V62.8008Z" fill="#6E98C7"/>
<path d="M846.123 53.1694C845.944 54.2533 845.059 54.7746 844.236 54.7677C843.420 54.7609 842.514 54.3150 842.309 53.3341C842.103 52.3531 842.130 51.4133 842.274 50.4667C842.425 49.4515 843.331 48.8684 844.195 48.8890C845.073 48.9027 845.978 49.4309 846.129 50.4667C846.253 51.3173 846.280 52.2296 846.129 53.1763L846.123 53.1694Z" fill="#6E98C7"/>
<path d="M846.123 72.4182C845.944 73.5089 845.066 74.0234 844.230 74.0165C843.393 74.0096 842.508 73.5638 842.309 72.5760C842.117 71.6430 842.130 70.6552 842.275 69.7086C842.425 68.7002 843.331 68.1171 844.195 68.1309C845.060 68.1446 845.972 68.6796 846.123 69.7017C846.253 70.5523 846.274 71.4647 846.123 72.4113V72.4182Z" fill="#6E98C7"/>
<path d="M812.887 91.1244H805.698L805.692 79.5726L783.692 84.9644V81.1435L805.698 75.6832L805.719 69.8524L783.699 75.2647V71.4027L805.692 65.9629L805.705 60.1390L783.692 65.5582V61.5658L805.664 56.2701L805.712 50.4188L783.699 55.8311V52.1131L805.685 46.5362L805.698 40.6986L783.699 46.1589V42.3449L805.712 36.7679L805.671 30.9646L783.699 36.3769C783.740 35.1010 783.672 33.8183 783.692 32.5355L805.705 27.0614L805.836 21.7314C806.076 21.6697 806.384 21.5668 806.583 21.4570C808.298 20.9769 812.901 18.8915 812.901 22.2322L812.887 91.1381V91.1244Z" fill="#003366"/>
<path d="M855.054 91.4605H781.401C780.077 91.4605 779 90.3835 779 89.0596C779 87.7357 780.077 86.6587 781.401 86.6587H855.054C856.378 86.6587 857.455 87.7357 857.455 89.0596C857.455 90.3835 856.378 91.4605 855.054 91.4605Z" fill="#003366"/>
</g>
<rect x="723" y="111" width="25" height="25" rx="12.5" fill="#379BFE"/>
<rect x="756" y="111" width="25" height="25" rx="12.5" fill="#379BFE"/>
<rect x="789" y="111" width="25" height="25" rx="12.5" fill="#379BFE"/>
<rect x="822" y="111" width="25" height="25" rx="12.5" fill="#379BFE"/>
<rect x="855" y="111" width="25" height="25" rx="12.5" fill="#379BFE"/>
<rect x="888" y="111" width="25" height="25" rx="12.5" fill="#379BFE"/>
<defs>
<clipPath id="clipHard">
<rect width="78.4547" height="91.4607" fill="white" transform="translate(779)"/>
</clipPath>
</defs>
</svg>
