<svg viewBox="458 18 64 75" fill="none" xmlns="http://www.w3.org/2000/svg"><defs><clipPath id="reveal"><rect x="458" y="18" width="64.0" height="75"/></clipPath><clipPath id="clipMedBldg"><rect width="61.3122" height="69.5164" transform="translate(459 21)"/></clipPath></defs><g clip-path="url(#reveal)"><g clip-path="url(#clipMedBldg)"><path d="M508.301 21.0001L472.397 21.1098C469.049 21.1235 466.347 23.8331 466.347 27.1807V87.9647H514.344L514.385 27.0709C514.385 23.7096 511.662 20.9863 508.301 21.0001Z" fill="#D6CFD5"/>
<path d="M476.485 55.0584C476.485 56.3686 475.477 57.1575 474.462 57.1163C473.323 57.0752 472.521 56.1903 472.527 54.9692L472.541 51.6697C472.541 50.5241 473.426 49.7558 474.448 49.7215C475.491 49.6872 476.485 50.4693 476.485 51.6766V55.0584Z" fill="#6E98C7"/>
<path d="M484.649 31.8789C484.649 33.2028 483.812 34.0123 482.776 34.0672C481.623 34.1289 480.677 33.2646 480.677 31.9955V28.696C480.677 27.5299 481.541 26.7479 482.529 26.693C483.661 26.6312 484.628 27.4475 484.635 28.696L484.649 31.8789Z" fill="#6E98C7"/>
<path d="M484.642 43.4923C484.642 44.7751 483.757 45.5434 482.769 45.5914C481.658 45.6463 480.691 44.8369 480.684 43.609V40.3094C480.670 39.109 481.500 38.2652 482.522 38.2104C483.716 38.1486 484.642 39.0198 484.635 40.3094V43.4992L484.642 43.4923Z" fill="#6E98C7"/>
<path d="M484.635 55.0992C484.635 56.4231 483.592 57.1777 482.543 57.1159C481.466 57.0542 480.670 56.1693 480.677 54.9688L480.691 51.683C480.691 50.4689 481.706 49.6731 482.755 49.728C483.887 49.7897 484.649 50.6884 484.649 51.9231L484.635 55.106V55.0992Z" fill="#6E98C7"/>
<path d="M492.791 31.879C492.791 33.2304 491.961 34.0467 490.864 34.0673C489.766 34.0879 488.826 33.251 488.826 31.9751V28.7099C488.826 27.5368 489.697 26.7754 490.630 26.6862C491.824 26.5696 492.777 27.4408 492.784 28.6961L492.798 31.879H492.791Z" fill="#6E98C7"/>
<path d="M476.492 43.4794C476.492 44.7553 475.614 45.5236 474.681 45.5922C473.515 45.6745 472.541 44.8445 472.534 43.6097V40.3033C472.527 39.096 473.351 38.2386 474.441 38.2043C475.470 38.170 476.465 38.9108 476.472 40.1044L476.485 43.4725L476.492 43.4794Z" fill="#6E98C7"/>
<path d="M476.479 32.0918C476.479 33.402 475.443 34.1017 474.448 34.0742C473.350 34.0399 472.534 33.203 472.534 31.9957V28.6962C472.534 27.5232 473.399 26.7274 474.448 26.6863C475.525 26.6451 476.485 27.4683 476.485 28.7099V32.0918H476.479Z" fill="#6E98C7"/>
<path d="M492.791 43.4929C492.791 44.7962 491.906 45.5645 490.829 45.592C489.780 45.6194 488.826 44.7688 488.833 43.5478L488.847 40.1042C488.847 38.890 489.862 38.1835 490.870 38.2041C491.995 38.2315 492.791 39.0821 492.791 40.3031V43.486V43.4929Z" fill="#6E98C7"/>
<path d="M492.798 54.8385C492.798 56.2311 492.030 57.0611 490.863 57.1022C489.841 57.1365 488.840 56.382 488.840 55.1609V51.7242C488.833 50.510 489.821 49.6869 490.857 49.728C492.030 49.7692 492.791 50.6678 492.798 51.9232V54.8385Z" fill="#6E98C7"/>
<path d="M491.584 60.8064C492.332 60.8064 492.778 61.5747 492.798 62.7408C492.819 63.7629 492.414 64.7645 491.755 64.7645H489.910C489.258 64.7713 488.819 63.7835 488.840 62.7477C488.861 61.5747 489.348 60.8133 490.020 60.8064H491.584Z" fill="#6E98C7"/>
<path d="M500.961 31.8789C500.961 33.2028 500.124 34.0123 499.088 34.0672C497.936 34.1289 496.989 33.2646 496.989 31.9955V28.696C496.989 27.5299 497.854 26.7479 498.841 26.693C499.973 26.6312 500.940 27.4475 500.947 28.696L500.961 31.8789Z" fill="#6E98C7"/>
<path d="M500.954 43.4923C500.954 44.7751 500.069 45.5434 499.081 45.5914C497.970 45.6463 497.003 44.8369 496.996 43.609V40.3094C496.982 39.109 497.812 38.2652 498.834 38.2104C500.028 38.1486 500.954 39.0198 500.947 40.3094V43.4992L500.954 43.4923Z" fill="#6E98C7"/>
<path d="M500.947 55.0992C500.947 56.4231 499.905 57.1777 498.855 57.1159C497.778 57.0542 496.982 56.1693 496.989 54.9688L497.003 51.683C497.003 50.4689 498.018 49.6731 499.068 49.728C500.200 49.7897 500.961 50.6884 500.961 51.9231L500.947 55.106V55.0992Z" fill="#6E98C7"/>
<path d="M509.104 31.879C509.104 33.2304 508.274 34.0467 507.176 34.0673C506.078 34.0879 505.139 33.251 505.139 31.9751V28.7099C505.139 27.5368 506.010 26.7754 506.943 26.6862C508.136 26.5696 509.090 27.4408 509.097 28.6961L509.110 31.879H509.104Z" fill="#6E98C7"/>
<path d="M509.103 43.4929C509.103 44.7962 508.218 45.5645 507.141 45.592C506.092 45.6194 505.138 44.7688 505.145 43.5478L505.159 40.1042C505.159 38.890 506.174 38.1835 507.182 38.2041C508.307 38.2315 509.103 39.0821 509.103 40.3031V43.486V43.4929Z" fill="#6E98C7"/>
<path d="M509.110 54.8385C509.110 56.2311 508.342 57.0611 507.176 57.1022C506.154 57.1365 505.152 56.382 505.152 55.1609V51.7242C505.146 50.510 506.133 49.6869 507.169 49.728C508.342 49.7692 509.104 50.6678 509.110 51.9232V54.8385Z" fill="#6E98C7"/>
<path d="M476.485 66.192C476.485 67.5022 475.477 68.291 474.462 68.2499C473.323 68.2087 472.521 67.3238 472.527 66.1028L472.541 62.8033C472.541 61.6577 473.426 60.8894 474.448 60.8551C475.491 60.8208 476.485 61.6028 476.485 62.8101V66.192Z" fill="#6E98C7"/>
<path d="M484.635 66.2325C484.635 67.5564 483.592 68.311 482.543 68.2492C481.466 68.1875 480.670 67.3026 480.677 66.1021L480.691 62.8163C480.691 61.6022 481.706 60.8064 482.755 60.8613C483.887 60.9231 484.649 61.8217 484.649 63.0564L484.635 66.2393V66.2325Z" fill="#6E98C7"/>
<path d="M497.270 85.7966L484.326 85.7417L484.367 74.0664C484.381 70.1015 487.687 67.488 491.131 67.6663C494.828 67.8584 497.332 70.8081 497.312 74.8484L497.270 85.7966Z" fill="#003366"/>
<path d="M500.947 66.2325C500.947 67.5564 499.905 68.311 498.855 68.2492C497.778 68.1875 496.982 67.3026 496.989 66.1021L497.003 62.8163C497.003 61.6022 498.018 60.8064 499.068 60.8613C500.200 60.9231 500.961 61.8217 500.961 63.0564L500.947 66.2393V66.2325Z" fill="#6E98C7"/>
<path d="M509.110 65.9718C509.110 67.3644 508.342 68.1944 507.176 68.2355C506.154 68.2698 505.152 67.5153 505.152 66.2942V62.8575C505.146 61.6433 506.133 60.8202 507.169 60.8613C508.342 60.9025 509.110 61.8011 509.110 63.0565V65.9718Z" fill="#6E98C7"/>
<path d="M476.485 77.3726C476.485 78.6828 475.477 79.4717 474.462 79.4305C473.323 79.3894 472.521 78.5045 472.527 77.2834L472.541 73.9839C472.541 72.8383 473.426 72.0701 474.448 72.0358C475.491 72.0015 476.485 72.7835 476.485 73.9908V77.3726Z" fill="#6E98C7"/>
<path d="M509.110 77.1466C509.110 78.5392 508.342 79.3692 507.176 79.4103C506.154 79.4446 505.152 78.6901 505.152 77.469V74.0323C505.146 72.8182 506.133 71.995 507.169 72.0361C508.342 72.0773 509.104 72.9759 509.110 74.2313V77.1466Z" fill="#6E98C7"/>
<path d="M490.321 67.7553C490.692 67.6112 491.007 67.6455 491.323 67.7553V85.0075H490.321V67.7621V67.7553Z" fill="#F8F6F7"/>
<path d="M517.911 90.5159H461.401C460.077 90.5159 459 89.4389 459 88.115C459 86.7911 460.077 85.7141 461.401 85.7141H517.911C519.235 85.7141 520.312 86.7911 520.312 88.115C520.312 89.4389 519.235 90.5159 517.911 90.5159Z" fill="#003366"/></g></g></svg>